# Blender v2.78 (sub 0) OBJ File: ''
# www.blender.org
o Cone
v -1.456990 0.651568 -0.520925
v -1.437776 0.846658 -0.520925
v -1.380870 1.034251 -0.520925
v -1.288460 1.207138 -0.520925
v -1.164097 1.358675 -0.520925
v -1.012560 1.483038 -0.520925
v -0.839674 1.575448 -0.520925
v -0.652081 1.632353 -0.520925
v -0.456990 1.651568 -0.520925
v -0.456990 0.651568 1.479074
v -0.261900 1.632353 -0.520925
v -0.074307 1.575448 -0.520925
v 0.098580 1.483038 -0.520925
v 0.250116 1.358675 -0.520925
v 0.374479 1.207138 -0.520925
v 0.466889 1.034251 -0.520925
v 0.523795 0.846658 -0.520925
v 0.543010 0.651568 -0.520925
v 0.523795 0.456477 -0.520925
v 0.466889 0.268884 -0.520925
v 0.374479 0.095997 -0.520925
v 0.250116 -0.055539 -0.520925
v 0.098579 -0.179902 -0.520925
v -0.074308 -0.272312 -0.520925
v -0.261901 -0.329217 -0.520925
v -0.456991 -0.348432 -0.520925
v -0.652082 -0.329217 -0.520925
v -0.839675 -0.272311 -0.520925
v -1.012562 -0.179901 -0.520925
v -1.164098 -0.055538 -0.520925
v -1.288461 0.095999 -0.520925
v -1.380870 0.268886 -0.520925
v -1.437776 0.456479 -0.520925
vn 0.0000 0.0000 -1.0000
vn -0.8641 0.0000 -0.5033
vn 0.0000 0.0000 1.0000
vn -0.8475 0.1686 -0.5033
vn -0.7983 0.3307 -0.5033
vn -0.7185 0.4801 -0.5033
vn -0.6110 0.6110 -0.5033
vn -0.4801 0.7185 -0.5033
vn -0.3307 0.7983 -0.5033
vn -0.1686 0.8475 -0.5033
vn 0.0000 0.8641 -0.5033
vn 0.1686 0.8475 -0.5033
vn 0.3307 0.7983 -0.5033
vn 0.4801 0.7185 -0.5033
vn 0.6110 0.6110 -0.5033
vn 0.7185 0.4801 -0.5033
vn 0.7983 0.3307 -0.5033
vn 0.8475 0.1686 -0.5033
vn 0.8641 0.0000 -0.5033
vn 0.8475 -0.1686 -0.5033
vn 0.7983 -0.3307 -0.5033
vn 0.7185 -0.4801 -0.5033
vn 0.6110 -0.6110 -0.5033
vn 0.4801 -0.7185 -0.5033
vn 0.3307 -0.7983 -0.5033
vn 0.1686 -0.8475 -0.5033
vn 0.0000 -0.8641 -0.5033
vn -0.1686 -0.8475 -0.5033
vn -0.3307 -0.7983 -0.5033
vn -0.4801 -0.7185 -0.5033
vn -0.6110 -0.6110 -0.5033
vn -0.7185 -0.4801 -0.5033
vn -0.7983 -0.3307 -0.5033
vn -0.8475 -0.1686 -0.5033
s off
f 17//1 25//1 33//1
f 33//1 1//1 2//1
f 2//1 3//1 4//1
f 4//1 5//1 8//1
f 6//1 7//1 8//1
f 8//1 9//1 13//1
f 11//1 12//1 13//1
f 13//1 14//1 17//1
f 15//1 16//1 17//1
f 17//1 18//1 19//1
f 19//1 20//1 21//1
f 21//1 22//1 25//1
f 23//1 24//1 25//1
f 25//1 26//1 27//1
f 27//1 28//1 29//1
f 29//1 30//1 31//1
f 31//1 32//1 29//1
f 33//1 2//1 8//1
f 5//1 6//1 8//1
f 9//1 11//1 13//1
f 14//1 15//1 17//1
f 17//1 19//1 25//1
f 22//1 23//1 25//1
f 25//1 27//1 33//1
f 29//1 32//1 33//1
f 2//1 4//1 8//1
f 8//1 13//1 17//1
f 19//1 21//1 25//1
f 27//1 29//1 33//1
f 33//1 8//1 17//1
s 1
f 1//2 10//3 2//4
f 2//4 10//3 3//5
f 3//5 10//3 4//6
f 4//6 10//3 5//7
f 5//7 10//3 6//8
f 6//8 10//3 7//9
f 7//9 10//3 8//10
f 8//10 10//3 9//11
f 9//11 10//3 11//12
f 11//12 10//3 12//13
f 12//13 10//3 13//14
f 13//14 10//3 14//15
f 14//15 10//3 15//16
f 15//16 10//3 16//17
f 16//17 10//3 17//18
f 17//18 10//3 18//19
f 18//19 10//3 19//20
f 19//20 10//3 20//21
f 20//21 10//3 21//22
f 21//22 10//3 22//23
f 22//23 10//3 23//24
f 23//24 10//3 24//25
f 24//25 10//3 25//26
f 25//26 10//3 26//27
f 26//27 10//3 27//28
f 27//28 10//3 28//29
f 28//29 10//3 29//30
f 29//30 10//3 30//31
f 30//31 10//3 31//32
f 31//32 10//3 32//33
f 32//33 10//3 33//34
f 33//34 10//3 1//2
