# Blender v2.78 (sub 0) OBJ File: 'installation_test.blend'
# www.blender.org
o Plane.002_Plane.004
v 0.335552 1.252313 0.577340
v 0.336746 1.256763 10.759365
v 0.335672 1.252758 1.594265
v 0.335791 1.253203 2.611192
v 0.335911 1.253648 3.628118
v 0.336030 1.254093 4.645043
v 0.336150 1.254538 5.661970
v 0.336269 1.254983 6.678896
v 0.336388 1.255428 7.695822
v 0.336508 1.255873 8.712748
v 0.336627 1.256318 9.729673
v 0.648241 1.122794 0.577339
v 0.650547 1.126784 10.759364
v 0.648472 1.123193 1.594265
v 0.648703 1.123592 2.611191
v 0.648933 1.123991 3.628117
v 0.649164 1.124390 4.645043
v 0.649394 1.124789 5.661969
v 0.649625 1.125188 6.678895
v 0.649855 1.125587 7.695821
v 0.650086 1.125986 8.712748
v 0.650316 1.126385 9.729673
v 0.916754 0.916759 0.577339
v 0.920013 0.920016 10.759363
v 0.917079 0.917084 1.594265
v 0.917406 0.917410 2.611191
v 0.917732 0.917736 3.628117
v 0.918058 0.918061 4.645042
v 0.918384 0.918387 5.661969
v 0.918710 0.918713 6.678895
v 0.919035 0.919039 7.695821
v 0.919361 0.919364 8.712747
v 0.919688 0.919690 9.729673
v 1.122791 0.648248 0.577338
v 1.126782 0.650550 10.759363
v 1.123190 0.648478 1.594264
v 1.123589 0.648708 2.611190
v 1.123988 0.648938 3.628116
v 1.124388 0.649168 4.645042
v 1.124787 0.649398 5.661968
v 1.125186 0.649629 6.678894
v 1.125585 0.649859 7.695820
v 1.125984 0.650089 8.712747
v 1.126383 0.650319 9.729672
v 1.252311 0.335559 0.577338
v 1.256763 0.336750 10.759363
v 1.252757 0.335678 1.594264
v 1.253202 0.335798 2.611190
v 1.253647 0.335917 3.628116
v 1.254092 0.336035 4.645041
v 1.254537 0.336154 5.661968
v 1.254982 0.336274 6.678894
v 1.255428 0.336393 7.695820
v 1.255873 0.336512 8.712746
v 1.256318 0.336631 9.729671
v 1.296489 0.000004 0.577337
v 1.301097 0.000002 10.759362
v 1.296950 0.000003 1.594263
v 1.297411 0.000003 2.611189
v 1.297872 0.000003 3.628115
v 1.298333 0.000002 4.645041
v 1.298793 0.000002 5.661967
v 1.299254 0.000002 6.678893
v 1.299715 0.000002 7.695819
v 1.300176 0.000002 8.712746
v 1.300637 0.000002 9.729671
v 1.252314 -0.335553 0.577337
v 1.256764 -0.336747 10.759361
v 1.252759 -0.335672 1.594263
v 1.253204 -0.335792 2.611189
v 1.253649 -0.335911 3.628115
v 1.254094 -0.336031 4.645041
v 1.254539 -0.336150 5.661967
v 1.254984 -0.336269 6.678893
v 1.255429 -0.336389 7.695819
v 1.255874 -0.336508 8.712745
v 1.256319 -0.336628 9.729671
v 1.122795 -0.648241 0.577336
v 1.126784 -0.650547 10.759361
v 1.123194 -0.648472 1.594262
v 1.123593 -0.648703 2.611188
v 1.123992 -0.648934 3.628114
v 1.124391 -0.649164 4.645041
v 1.124789 -0.649395 5.661966
v 1.125189 -0.649625 6.678892
v 1.125588 -0.649855 7.695818
v 1.125987 -0.650086 8.712745
v 1.126385 -0.650317 9.729671
v 0.916760 -0.916753 0.577336
v 0.920016 -0.920014 10.759361
v 0.917085 -0.917080 1.594262
v 0.917411 -0.917406 2.611188
v 0.917737 -0.917732 3.628114
v 0.918062 -0.918058 4.645040
v 0.918388 -0.918384 5.661966
v 0.918714 -0.918710 6.678892
v 0.919039 -0.919036 7.695818
v 0.919365 -0.919362 8.712744
v 0.919691 -0.919688 9.729670
v 0.648249 -1.122790 0.577335
v 0.650551 -1.126783 10.759360
v 0.648479 -1.123191 1.594261
v 0.648709 -1.123589 2.611187
v 0.648939 -1.123989 3.628113
v 0.649169 -1.124388 4.645040
v 0.649400 -1.124787 5.661965
v 0.649630 -1.125186 6.678891
v 0.649860 -1.125585 7.695817
v 0.650090 -1.125984 8.712744
v 0.650320 -1.126383 9.729670
v 0.335561 -1.252311 0.577335
v 0.336751 -1.256763 10.759359
v 0.335679 -1.252757 1.594261
v 0.335799 -1.253202 2.611187
v 0.335918 -1.253647 3.628113
v 0.336037 -1.254092 4.645039
v 0.336156 -1.254538 5.661965
v 0.336275 -1.254982 6.678891
v 0.336395 -1.255427 7.695817
v 0.336513 -1.255873 8.712743
v 0.336632 -1.256318 9.729670
v 0.000005 -1.296489 0.577334
v 0.000003 -1.301098 10.759359
v 0.000004 -1.296950 1.594260
v 0.000005 -1.297411 2.611186
v 0.000004 -1.297872 3.628112
v 0.000004 -1.298333 4.645039
v 0.000004 -1.298794 5.661964
v 0.000004 -1.299254 6.678890
v 0.000004 -1.299715 7.695817
v 0.000003 -1.300176 8.712743
v 0.000003 -1.300637 9.729669
v -0.335551 -1.252314 0.577334
v -0.336746 -1.256764 10.759359
v -0.335671 -1.252759 1.594260
v -0.335790 -1.253204 2.611186
v -0.335910 -1.253649 3.628112
v -0.336029 -1.254094 4.645038
v -0.336149 -1.254539 5.661964
v -0.336268 -1.254984 6.678890
v -0.336387 -1.255429 7.695816
v -0.336507 -1.255874 8.712742
v -0.336627 -1.256320 9.729668
v -0.648239 -1.122796 0.577333
v -0.650546 -1.126784 10.759358
v -0.648471 -1.123194 1.594259
v -0.648701 -1.123593 2.611185
v -0.648932 -1.123993 3.628111
v -0.649163 -1.124391 4.645038
v -0.649393 -1.124790 5.661963
v -0.649623 -1.125189 6.678889
v -0.649853 -1.125589 7.695816
v -0.650084 -1.125987 8.712742
v -0.650315 -1.126386 9.729668
v -0.916752 -0.916761 0.577333
v -0.920012 -0.920016 10.759357
v -0.917078 -0.917085 1.594259
v -0.917404 -0.917411 2.611185
v -0.917730 -0.917737 3.628111
v -0.918056 -0.918063 4.645037
v -0.918383 -0.918388 5.661963
v -0.918708 -0.918714 6.678889
v -0.919034 -0.919040 7.695815
v -0.919360 -0.919366 8.712741
v -0.919686 -0.919691 9.729668
v -1.122789 -0.648250 0.577332
v -1.126781 -0.650551 10.759357
v -1.123188 -0.648479 1.594258
v -1.123588 -0.648709 2.611184
v -1.123987 -0.648940 3.628110
v -1.124386 -0.649170 4.645037
v -1.124785 -0.649400 5.661963
v -1.125184 -0.649631 6.678888
v -1.125584 -0.649861 7.695815
v -1.125982 -0.650091 8.712741
v -1.126382 -0.650321 9.729667
v -1.252310 -0.335562 0.577332
v -1.256762 -0.336752 10.759357
v -1.252754 -0.335680 1.594258
v -1.253201 -0.335799 2.611184
v -1.253646 -0.335919 3.628110
v -1.254090 -0.336038 4.645036
v -1.254536 -0.336156 5.661962
v -1.254981 -0.336276 6.678888
v -1.255426 -0.336395 7.695814
v -1.255871 -0.336514 8.712740
v -1.256316 -0.336633 9.729666
v -1.296488 -0.000006 0.577332
v -1.301096 -0.000003 10.759356
v -1.296947 -0.000005 1.594257
v -1.297410 -0.000005 2.611183
v -1.297871 -0.000005 3.628109
v -1.298330 -0.000005 4.645036
v -1.298791 -0.000004 5.661962
v -1.299253 -0.000005 6.678887
v -1.299714 -0.000004 7.695814
v -1.300174 -0.000004 8.712740
v -1.300634 -0.000004 9.729666
v -1.252313 0.335550 0.577331
v -1.256763 0.336745 10.759356
v -1.252756 0.335670 1.594257
v -1.253202 0.335790 2.611183
v -1.253648 0.335909 3.628109
v -1.254091 0.336028 4.645035
v -1.254537 0.336148 5.661961
v -1.254982 0.336267 6.678887
v -1.255428 0.336387 7.695813
v -1.255872 0.336506 8.712739
v -1.256317 0.336625 9.729666
v -1.122794 0.648238 0.577331
v -1.126782 0.650545 10.759356
v -1.123192 0.648469 1.594256
v -1.123591 0.648700 2.611182
v -1.123991 0.648931 3.628109
v -1.124389 0.649161 4.645035
v -1.124787 0.649392 5.661961
v -1.125187 0.649622 6.678886
v -1.125587 0.649853 7.695813
v -1.125984 0.650083 8.712739
v -1.126384 0.650314 9.729665
v -0.916759 0.916751 0.577330
v -0.920014 0.920011 10.759356
v -0.917084 0.917076 1.594256
v -0.917410 0.917403 2.611182
v -0.917736 0.917729 3.628108
v -0.918060 0.918054 4.645034
v -0.918386 0.918381 5.661960
v -0.918713 0.918707 6.678886
v -0.919040 0.919033 7.695812
v -0.919363 0.919358 8.712738
v -0.919689 0.919684 9.729664
v -0.648249 1.122788 0.577330
v -0.650549 1.126779 10.759355
v -0.648478 1.123186 1.594255
v -0.648708 1.123587 2.611181
v -0.648939 1.123986 3.628108
v -0.649168 1.124384 4.645034
v -0.649398 1.124784 5.661960
v -0.649629 1.125183 6.678885
v -0.649861 1.125583 7.695812
v -0.650089 1.125981 8.712738
v -0.650319 1.126380 9.729664
v -0.335561 1.252309 0.577329
v -0.336750 1.256760 10.759354
v -0.335679 1.252753 1.594255
v -0.335798 1.253199 2.611181
v -0.335918 1.253645 3.628107
v -0.336036 1.254088 4.645033
v -0.336154 1.254534 5.661959
v -0.336275 1.254979 6.678885
v -0.336395 1.255426 7.695811
v -0.336512 1.255869 8.712737
v -0.336631 1.256315 9.729664
v -0.000005 1.296487 0.577329
v -0.000002 1.301094 10.759354
v -0.000005 1.296947 1.594254
v -0.000004 1.297409 2.611181
v -0.000004 1.297870 3.628107
v -0.000003 1.298329 4.645033
v -0.000003 1.298790 5.661959
v -0.000004 1.299251 6.678885
v -0.000004 1.299714 7.695811
v -0.000002 1.300172 8.712737
v -0.000003 1.300633 9.729663
vn -0.2588 -0.9659 0.0004
vn 0.0000 -1.0000 0.0004
vn -0.5000 -0.8660 0.0004
vn -0.7071 -0.7071 0.0004
vn -0.8660 -0.5000 0.0004
vn -0.9659 -0.2588 0.0004
vn -1.0000 0.0000 0.0004
vn -0.9659 0.2588 0.0004
vn -0.8660 0.5000 0.0004
vn -0.7071 0.7071 0.0004
vn -0.5000 0.8660 0.0004
vn -0.2588 0.9659 0.0004
vn 0.0000 1.0000 0.0004
vn 0.2588 0.9659 0.0004
vn 0.5000 0.8660 0.0004
vn 0.7071 0.7071 0.0004
vn 0.8660 0.5000 0.0004
vn 0.9659 0.2588 0.0004
vn 1.0000 0.0000 0.0004
vn 0.9659 -0.2588 0.0004
vn 0.8660 -0.5000 0.0004
vn 0.7071 -0.7071 0.0004
vn 0.5000 -0.8660 0.0004
vn 0.2588 -0.9659 0.0004
s 1
f 10//1 264//2 263//2
f 7//1 261//2 260//2
f 4//1 258//2 257//2
f 11//1 255//2 264//2
f 8//1 262//2 261//2
f 5//1 259//2 258//2
f 1//1 256//2 254//2
f 9//1 263//2 262//2
f 6//1 260//2 259//2
f 3//1 257//2 256//2
f 7//1 19//3 8//1
f 4//1 16//3 5//1
f 11//1 13//3 2//1
f 8//1 20//3 9//1
f 5//1 17//3 6//1
f 1//1 14//3 3//1
f 9//1 21//3 10//1
f 6//1 18//3 7//1
f 3//1 15//3 4//1
f 21//3 11//1 10//1
f 14//3 26//4 15//3
f 21//3 33//4 22//3
f 18//3 30//4 19//3
f 15//3 27//4 16//3
f 22//3 24//4 13//3
f 19//3 31//4 20//3
f 16//3 28//4 17//3
f 12//3 25//4 14//3
f 20//3 32//4 21//3
f 17//3 29//4 18//3
f 42//5 32//4 31//4
f 39//5 29//4 28//4
f 25//4 37//5 26//4
f 32//4 44//5 33//4
f 29//4 41//5 30//4
f 26//4 38//5 27//4
f 33//4 35//5 24//4
f 30//4 42//5 31//4
f 27//4 39//5 28//4
f 23//4 36//5 25//4
f 38//5 50//6 39//5
f 34//5 47//6 36//5
f 42//5 54//6 43//5
f 39//5 51//6 40//5
f 36//5 48//6 37//5
f 43//5 55//6 44//5
f 40//5 52//6 41//5
f 37//5 49//6 38//5
f 44//5 46//6 35//5
f 41//5 53//6 42//5
f 55//6 57//7 46//6
f 52//6 64//7 53//6
f 60//7 50//6 49//6
f 45//6 58//7 47//6
f 64//7 54//6 53//6
f 50//6 62//7 51//6
f 47//6 59//7 48//6
f 65//7 55//6 54//6
f 51//6 63//7 52//6
f 48//6 60//7 49//6
f 59//7 71//8 60//7
f 66//7 68//8 57//7
f 63//7 75//8 64//7
f 60//7 72//8 61//7
f 56//7 69//8 58//7
f 64//7 76//8 65//7
f 61//7 73//8 62//7
f 58//7 70//8 59//7
f 65//7 77//8 66//7
f 62//7 74//8 63//7
f 76//8 88//9 77//8
f 73//8 85//9 74//8
f 70//8 82//9 71//8
f 77//8 79//9 68//8
f 74//8 86//9 75//8
f 82//9 72//8 71//8
f 67//8 80//9 69//8
f 75//8 87//9 76//8
f 72//8 84//9 73//8
f 69//8 81//9 70//8
f 83//9 95//10 84//9
f 80//9 92//10 81//9
f 87//9 99//10 88//9
f 84//9 96//10 85//9
f 81//9 93//10 82//9
f 88//9 90//10 79//9
f 85//9 97//10 86//9
f 82//9 94//10 83//9
f 89//10 80//9 78//9
f 86//9 98//10 87//9
f 89//10 102//11 91//10
f 108//11 98//10 97//10
f 94//10 106//11 95//10
f 91//10 103//11 92//10
f 109//11 99//10 98//10
f 95//10 107//11 96//10
f 92//10 104//11 93//10
f 99//10 101//11 90//10
f 96//10 108//11 97//10
f 93//10 105//11 94//10
f 104//11 116//12 105//11
f 100//11 113//12 102//11
f 108//11 120//12 109//11
f 105//11 117//12 106//11
f 102//11 114//12 103//11
f 109//11 121//12 110//11
f 106//11 118//12 107//11
f 103//11 115//12 104//11
f 110//11 112//12 101//11
f 107//11 119//12 108//11
f 121//12 123//13 112//12
f 118//12 130//13 119//12
f 126//13 116//12 115//12
f 122//13 113//12 111//12
f 130//13 120//12 119//12
f 116//12 128//13 117//12
f 113//12 125//13 114//12
f 120//12 132//13 121//12
f 117//12 129//13 118//12
f 114//12 126//13 115//12
f 128//13 140//14 129//13
f 125//13 137//14 126//13
f 132//13 134//14 123//13
f 129//13 141//14 130//13
f 126//13 138//14 127//13
f 133//14 124//13 122//13
f 130//13 142//14 131//13
f 127//13 139//14 128//13
f 124//13 136//14 125//13
f 131//13 143//14 132//13
f 135//14 147//15 136//14
f 153//15 143//14 142//14
f 139//14 151//15 140//14
f 136//14 148//15 137//14
f 143//14 145//15 134//14
f 140//14 152//15 141//14
f 137//14 149//15 138//14
f 144//15 135//14 133//14
f 152//15 142//14 141//14
f 138//14 150//15 139//14
f 149//15 161//16 150//15
f 146//15 158//16 147//15
f 153//15 165//16 154//15
f 150//15 162//16 151//15
f 147//15 159//16 148//15
f 154//15 156//16 145//15
f 151//15 163//16 152//15
f 148//15 160//16 149//15
f 155//16 146//15 144//15
f 152//15 164//16 153//15
f 155//16 168//17 157//16
f 174//17 164//16 163//16
f 171//17 161//16 160//16
f 157//16 169//17 158//16
f 164//16 176//17 165//16
f 161//16 173//17 162//16
f 158//16 170//17 159//16
f 165//16 167//17 156//16
f 162//16 174//17 163//16
f 159//16 171//17 160//16
f 173//17 185//18 174//17
f 170//17 182//18 171//17
f 166//17 179//18 168//17
f 174//17 186//18 175//17
f 171//17 183//18 172//17
f 168//17 180//18 169//17
f 175//17 187//18 176//17
f 172//17 184//18 173//17
f 169//17 181//18 170//17
f 176//17 178//18 167//17
f 180//18 192//19 181//18
f 187//18 189//19 178//18
f 184//18 196//19 185//18
f 181//18 193//19 182//18
f 177//18 190//19 179//18
f 185//18 197//19 186//18
f 193//19 183//18 182//18
f 179//18 191//19 180//18
f 197//19 187//18 186//18
f 183//18 195//19 184//18
f 194//19 206//20 195//19
f 191//19 203//20 192//19
f 198//19 200//20 189//19
f 195//19 207//20 196//19
f 192//19 204//20 193//19
f 199//20 190//19 188//19
f 196//19 208//20 197//19
f 193//19 205//20 194//19
f 190//19 202//20 191//19
f 197//19 209//20 198//19
f 201//20 213//21 202//20
f 208//20 220//21 209//20
f 205//20 217//21 206//20
f 202//20 214//21 203//20
f 209//20 211//21 200//20
f 206//20 218//21 207//20
f 203//20 215//21 204//20
f 199//20 212//21 201//20
f 218//21 208//20 207//20
f 215//21 205//20 204//20
f 218//21 230//22 219//21
f 215//21 227//22 216//21
f 212//21 224//22 213//21
f 219//21 231//22 220//21
f 216//21 228//22 217//21
f 213//21 225//22 214//21
f 220//21 222//22 211//21
f 217//21 229//22 218//21
f 214//21 226//22 215//21
f 210//21 223//22 212//21
f 236//23 226//22 225//22
f 221//22 234//23 223//22
f 240//23 230//22 229//22
f 237//23 227//22 226//22
f 223//22 235//23 224//22
f 241//23 231//22 230//22
f 227//22 239//23 228//22
f 224//22 236//23 225//22
f 231//22 233//23 222//22
f 228//22 240//23 229//22
f 242//23 244//24 233//23
f 239//23 251//24 240//23
f 236//23 248//24 237//23
f 232//23 245//24 234//23
f 240//23 252//24 241//23
f 237//23 249//24 238//23
f 234//23 246//24 235//23
f 241//23 253//24 242//23
f 238//23 250//24 239//23
f 235//23 247//24 236//23
f 246//24 258//2 247//24
f 253//24 255//2 244//24
f 250//24 262//2 251//24
f 258//2 248//24 247//24
f 243//24 256//2 245//24
f 262//2 252//24 251//24
f 259//2 249//24 248//24
f 245//24 257//2 246//24
f 252//24 264//2 253//24
f 249//24 261//2 250//24
f 10//1 11//1 264//2
f 7//1 8//1 261//2
f 4//1 5//1 258//2
f 11//1 2//1 255//2
f 8//1 9//1 262//2
f 5//1 6//1 259//2
f 1//1 3//1 256//2
f 9//1 10//1 263//2
f 6//1 7//1 260//2
f 3//1 4//1 257//2
f 7//1 18//3 19//3
f 4//1 15//3 16//3
f 11//1 22//3 13//3
f 8//1 19//3 20//3
f 5//1 16//3 17//3
f 1//1 12//3 14//3
f 9//1 20//3 21//3
f 6//1 17//3 18//3
f 3//1 14//3 15//3
f 21//3 22//3 11//1
f 14//3 25//4 26//4
f 21//3 32//4 33//4
f 18//3 29//4 30//4
f 15//3 26//4 27//4
f 22//3 33//4 24//4
f 19//3 30//4 31//4
f 16//3 27//4 28//4
f 12//3 23//4 25//4
f 20//3 31//4 32//4
f 17//3 28//4 29//4
f 42//5 43//5 32//4
f 39//5 40//5 29//4
f 25//4 36//5 37//5
f 32//4 43//5 44//5
f 29//4 40//5 41//5
f 26//4 37//5 38//5
f 33//4 44//5 35//5
f 30//4 41//5 42//5
f 27//4 38//5 39//5
f 23//4 34//5 36//5
f 38//5 49//6 50//6
f 34//5 45//6 47//6
f 42//5 53//6 54//6
f 39//5 50//6 51//6
f 36//5 47//6 48//6
f 43//5 54//6 55//6
f 40//5 51//6 52//6
f 37//5 48//6 49//6
f 44//5 55//6 46//6
f 41//5 52//6 53//6
f 55//6 66//7 57//7
f 52//6 63//7 64//7
f 60//7 61//7 50//6
f 45//6 56//7 58//7
f 64//7 65//7 54//6
f 50//6 61//7 62//7
f 47//6 58//7 59//7
f 65//7 66//7 55//6
f 51//6 62//7 63//7
f 48//6 59//7 60//7
f 59//7 70//8 71//8
f 66//7 77//8 68//8
f 63//7 74//8 75//8
f 60//7 71//8 72//8
f 56//7 67//8 69//8
f 64//7 75//8 76//8
f 61//7 72//8 73//8
f 58//7 69//8 70//8
f 65//7 76//8 77//8
f 62//7 73//8 74//8
f 76//8 87//9 88//9
f 73//8 84//9 85//9
f 70//8 81//9 82//9
f 77//8 88//9 79//9
f 74//8 85//9 86//9
f 82//9 83//9 72//8
f 67//8 78//9 80//9
f 75//8 86//9 87//9
f 72//8 83//9 84//9
f 69//8 80//9 81//9
f 83//9 94//10 95//10
f 80//9 91//10 92//10
f 87//9 98//10 99//10
f 84//9 95//10 96//10
f 81//9 92//10 93//10
f 88//9 99//10 90//10
f 85//9 96//10 97//10
f 82//9 93//10 94//10
f 89//10 91//10 80//9
f 86//9 97//10 98//10
f 89//10 100//11 102//11
f 108//11 109//11 98//10
f 94//10 105//11 106//11
f 91//10 102//11 103//11
f 109//11 110//11 99//10
f 95//10 106//11 107//11
f 92//10 103//11 104//11
f 99//10 110//11 101//11
f 96//10 107//11 108//11
f 93//10 104//11 105//11
f 104//11 115//12 116//12
f 100//11 111//12 113//12
f 108//11 119//12 120//12
f 105//11 116//12 117//12
f 102//11 113//12 114//12
f 109//11 120//12 121//12
f 106//11 117//12 118//12
f 103//11 114//12 115//12
f 110//11 121//12 112//12
f 107//11 118//12 119//12
f 121//12 132//13 123//13
f 118//12 129//13 130//13
f 126//13 127//13 116//12
f 122//13 124//13 113//12
f 130//13 131//13 120//12
f 116//12 127//13 128//13
f 113//12 124//13 125//13
f 120//12 131//13 132//13
f 117//12 128//13 129//13
f 114//12 125//13 126//13
f 128//13 139//14 140//14
f 125//13 136//14 137//14
f 132//13 143//14 134//14
f 129//13 140//14 141//14
f 126//13 137//14 138//14
f 133//14 135//14 124//13
f 130//13 141//14 142//14
f 127//13 138//14 139//14
f 124//13 135//14 136//14
f 131//13 142//14 143//14
f 135//14 146//15 147//15
f 153//15 154//15 143//14
f 139//14 150//15 151//15
f 136//14 147//15 148//15
f 143//14 154//15 145//15
f 140//14 151//15 152//15
f 137//14 148//15 149//15
f 144//15 146//15 135//14
f 152//15 153//15 142//14
f 138//14 149//15 150//15
f 149//15 160//16 161//16
f 146//15 157//16 158//16
f 153//15 164//16 165//16
f 150//15 161//16 162//16
f 147//15 158//16 159//16
f 154//15 165//16 156//16
f 151//15 162//16 163//16
f 148//15 159//16 160//16
f 155//16 157//16 146//15
f 152//15 163//16 164//16
f 155//16 166//17 168//17
f 174//17 175//17 164//16
f 171//17 172//17 161//16
f 157//16 168//17 169//17
f 164//16 175//17 176//17
f 161//16 172//17 173//17
f 158//16 169//17 170//17
f 165//16 176//17 167//17
f 162//16 173//17 174//17
f 159//16 170//17 171//17
f 173//17 184//18 185//18
f 170//17 181//18 182//18
f 166//17 177//18 179//18
f 174//17 185//18 186//18
f 171//17 182//18 183//18
f 168//17 179//18 180//18
f 175//17 186//18 187//18
f 172//17 183//18 184//18
f 169//17 180//18 181//18
f 176//17 187//18 178//18
f 180//18 191//19 192//19
f 187//18 198//19 189//19
f 184//18 195//19 196//19
f 181//18 192//19 193//19
f 177//18 188//19 190//19
f 185//18 196//19 197//19
f 193//19 194//19 183//18
f 179//18 190//19 191//19
f 197//19 198//19 187//18
f 183//18 194//19 195//19
f 194//19 205//20 206//20
f 191//19 202//20 203//20
f 198//19 209//20 200//20
f 195//19 206//20 207//20
f 192//19 203//20 204//20
f 199//20 201//20 190//19
f 196//19 207//20 208//20
f 193//19 204//20 205//20
f 190//19 201//20 202//20
f 197//19 208//20 209//20
f 201//20 212//21 213//21
f 208//20 219//21 220//21
f 205//20 216//21 217//21
f 202//20 213//21 214//21
f 209//20 220//21 211//21
f 206//20 217//21 218//21
f 203//20 214//21 215//21
f 199//20 210//21 212//21
f 218//21 219//21 208//20
f 215//21 216//21 205//20
f 218//21 229//22 230//22
f 215//21 226//22 227//22
f 212//21 223//22 224//22
f 219//21 230//22 231//22
f 216//21 227//22 228//22
f 213//21 224//22 225//22
f 220//21 231//22 222//22
f 217//21 228//22 229//22
f 214//21 225//22 226//22
f 210//21 221//22 223//22
f 236//23 237//23 226//22
f 221//22 232//23 234//23
f 240//23 241//23 230//22
f 237//23 238//23 227//22
f 223//22 234//23 235//23
f 241//23 242//23 231//22
f 227//22 238//23 239//23
f 224//22 235//23 236//23
f 231//22 242//23 233//23
f 228//22 239//23 240//23
f 242//23 253//24 244//24
f 239//23 250//24 251//24
f 236//23 247//24 248//24
f 232//23 243//24 245//24
f 240//23 251//24 252//24
f 237//23 248//24 249//24
f 234//23 245//24 246//24
f 241//23 252//24 253//24
f 238//23 249//24 250//24
f 235//23 246//24 247//24
f 246//24 257//2 258//2
f 253//24 264//2 255//2
f 250//24 261//2 262//2
f 258//2 259//2 248//24
f 243//24 254//2 256//2
f 262//2 263//2 252//24
f 259//2 260//2 249//24
f 245//24 256//2 257//2
f 252//24 263//2 264//2
f 249//24 260//2 261//2
